<svg id="Layer_1" data-name="Layer 1" xmlns="http://www.w3.org/2000/svg" viewBox="0 0 411.53 192.05"><defs><style>.cls-1{fill:#fff;}</style></defs><title>Coffinshakers_Logo</title><path class="cls-1" d="M89.54,84.77c-4.41-.84-7.79-1.92-11.18-2-2,0-3.94,1.64-6.4,2.77.46.22,0,.1-.06,0-.59-10.27-1-20.58-1.72-30.87a51.19,51.19,0,0,0-1.5-10.8C68.22,42.29,66,41.24,64.5,40c-1.12,1.28-3.06,2.48-3.23,3.88-.69,5.75-.89,11.57-1.17,17.37-.17,3.77-.19,7.55-.22,11.32v10.8c0,1.3.39,3.23-.3,3.8-4.6,3.83-2.34,8.65-2,13,.55,7.74,2,15.43,2.29,23.17.39,9.17-.24,18.38.13,27.55.13,3.42,1.81,6.77,2.79,10.15l1.94.32c1.18-1.7,3.17-3.28,3.41-5.1,1.29-9.78,2.39-19.61,3-29.45.26-3.91-.81-7.91-1.43-13.16l3.9,2.14,14.77-4.43c-.46,3.47-1,6.2-1.16,9-.43,8.53-.14,17.14-1.17,25.6-1.14,9.34-3.4,18.54-5.22,27.8-.78,4-3.27,5.3-7.29,4.94a7.2,7.2,0,0,0-4.93,2c-2.63,2.51-4.62,5.7-7.24,8.22-5,4.84-10.88,4.12-14-2-7-13.79-11.91-28.08-7.9-43.93a11.89,11.89,0,0,0,.13-4.41c-.52-3.67-1.75-7.32-1.78-11-.13-14.94.06-29.89.23-44.84A14.88,14.88,0,0,1,39.21,78c1-2.89,3.31-5.74-.55-8.35a3,3,0,0,1-.72-2.31c.36-7.61.27-15.31,1.4-22.82,1.06-7,2.46-14.25,5.52-20.46,2.6-5.29,7.66-9.43,11.88-13.83a6.21,6.21,0,0,1,4.57-1.63c5,.57,10.22,1.06,15,2.61,6.57,2.12,9.35,7.85,10.11,14.24.71,5.93,2,12.31.54,17.87-2.8,10.88,1.87,21.18.82,31.81C87.51,78,88.86,81,89.54,84.77Z"/><path class="cls-1" d="M95,113.45q1-16.11,2-32.22c.06-1.14.27-2.57-.28-3.42-6.19-9.73-2.26-20-1.84-30.11.2-5,.46-9.92.52-14.88.17-13.46,6.09-24,19.91-27.8,4.76-1.3,9.22-.63,12.08,4.33a58.83,58.83,0,0,0,5,6.85c2.6,3.28,6.62,6.13,2.48,11-.5.58-.12,1.93-.14,2.92-.17,6.43-.59,12.86-.44,19.28.15,6.79,1,13.56,1.25,20.34.26,7.6,0,15.2.27,22.8.11,4,.82,7.91,1,11.88a14.68,14.68,0,0,1-.79,5.26c-.94,2.8-2.67,5.39-3.24,8.24-.79,3.89,0,8.22-1.31,11.85-2.08,5.78-4.26,12.21-8.4,16.38-3.53,3.55-9.78,4.74-15,6-1.73.42-5-1.6-6.15-3.4-2.38-3.8-4.91-8.06-5.4-12.36-.87-7.55-.24-15.27-.24-22.91Zm23.69-78.78,2-.54c-1.22-2.3-2.14-6.27-3.73-6.56-4.37-.78-4.53,3.45-4.87,6.48-.9,8.08-1.55,16.19-2.28,24.29-.47,5.27-2.51,11.09-1,15.69,2,5.91,1.21,11.37,1.2,17.07,0,4-.35,8,0,12,.56,6.59,1.34,13.18,2.51,19.68.32,1.76,2.36,3.2,3.61,4.79,1-1.72,2.46-3.35,2.73-5.17.55-3.76.34-7.62.61-11.42.92-13.26-2.85-26.77,2.36-39.83.85-2.15.37-5,.12-7.41C121,54,119.79,44.35,118.69,34.67Z"/><path class="cls-1" d="M158.38,128.7c-5.54-2.69-10.28-3.21-13.8,2.55l-1.23-.53c0-9.84-.15-19.68.07-29.51.1-4.31,1.25-8.6,1.36-12.91.06-2.42-1-4.87-1.62-7.3a6.83,6.83,0,0,1-.51-1.87c.55-6.4,1.37-12.79,1.7-19.21.2-3.73-.77-7.54-.46-11.25a174.78,174.78,0,0,0-.83-35.79,11.89,11.89,0,0,1,.79-6.35,6,6,0,0,1,4.33-3c4.45,0,8.89,1,13.35,1.14,2.05,0,4.14-1,6.87-1.82l1.42,23c-1.22.32-1.62.56-1.82.45-5.76-3.09-7.15-2.9-8.4,3.46s-1.27,12.77-1.36,19.18c0,3,2.21,3.88,5,2.88,1.19-.42,2.32-1,4.46-2,.36,8.08.68,15.39,1,23.36-1.79-.65-3.06-1.41-4.39-1.54-4.08-.4-6.87,2.82-6.8,7.08.21,13.89.25,27.78.4,41.67C158,122.88,158.19,125.33,158.38,128.7Z"/><path class="cls-1" d="M233,3.42l11.52-1.86c2.22,13.37-.6,28.38,7.59,40.88l1.41-.14c-.35-4.46-.68-8.93-1.07-13.38-.07-.82-.67-1.73-.46-2.43,2.16-7,1.33-14.06.69-21.16-.09-1,1.66-2.57,2.91-3.14,2-.93,4.33-1.26,7.82-2.19a65.71,65.71,0,0,1,.25,8.3c-.36,4.1-1.55,8.14-1.69,12.24q-.77,21.74-1,43.5c-.05,5.46.51,10.93.86,16.39.22,3.51.66,7-4.82,6-1-.17-2.12.68-3.11,1Q249,70.76,244.06,54.15h-2a56.52,56.52,0,0,0-.79,7.22q.19,14.43.72,28.87c.12,3.23-1.4,4.12-4.25,3.86-2.59-.23-5.18-.39-8.41-.63.29-2.81.81-5.84.88-8.89.19-7.42-.17-14.87.31-22.27.77-11.71,2-23.39,3.11-35.08.07-.82.5-1.93.13-2.42C228.38,17.77,234.13,10.52,233,3.42Z"/><path class="cls-1" d="M177.69,119c-.6-1.39-1.18-2.12-1.18-2.84,0-7.62.21-15.23.19-22.84a30.34,30.34,0,0,0-1-5.51,18.2,18.2,0,0,1-.76-3.72q.54-21.12,1.25-42.24c0-1.44.8-2.88.79-4.32,0-2.66-.41-5.32-.5-8-.25-7.44-.77-14.9-.29-22.29.09-1.32,4.35-2.77,6.87-3.41,2-.51,4.33.5,6.41.19,4.63-.7,9.2-1.81,14.07-2.81.29,6.6.62,14,1,23L194.92,18c-1.07,2.62-2.64,5-3,7.55A118.35,118.35,0,0,0,191.16,41c0,1.44.94,3.5,2.07,4.1.91.48,2.82-.7,4.17-1.37a26.8,26.8,0,0,0,3.46-2.64A32.28,32.28,0,0,1,202,45.52c.4,4.12.68,8.25,1,12.37.21,3.32-.62,5.25-4.73,5.09-5.88-.22-7.68,2.17-7.6,7.75.17,10.87.1,21.74.13,32.61a24.28,24.28,0,0,0,.13,4.43c.7,3.39,0,5-4,4.75-1.49-.1-3.18,1.37-4.6,2.38A60.89,60.89,0,0,0,177.69,119Z"/><path class="cls-1" d="M224.71,98.85l-14.63,4.5c0-5.2-.17-10.26,0-15.31.28-6.72,1-13.42,1.25-20.14.17-5.59-.3-11.19-.29-16.78,0-4.79,2.18-9.74-1.76-14.17-.65-.74.33-2.86.39-4.34.32-7.58.95-15.18.77-22.75-.16-7,2.06-9.43,8.58-7.95,2.27.51,4.59.75,6.88,1.12-.43,2.43-.91,4.85-1.25,7.29a8.12,8.12,0,0,0,0,3.47c3.19,10.33,2.65,21.27,0,31-3.65,13.1,1.58,25.84-1.39,38.7C222.12,88.41,224.18,94.11,224.71,98.85Z"/><path class="cls-1" d="M316,73.77l-8.43.91V46.38l-2.44-.6c-.82,1.58-2.3,3.13-2.34,4.72-.2,7.78,0,15.57,0,23.35a3.32,3.32,0,0,1-.2,1.13h-9.31V2.47h9.48c0,7.61-.12,15.29.11,23,0,1.32,1.56,2.59,2.39,3.87.87-1.14,2.42-2.26,2.47-3.44.24-5.73,0-11.48.11-17.21,0-2.45-.8-5.36,3.62-5.61,4.2-.24,5.38,1.67,5.32,5.15-.23,14.31-.58,28.62-.79,42.94C315.92,58.58,316,66,316,73.77Z"/><path class="cls-1" d="M290,25.46h-9.62c-.13-1.81-.17-4.35-.54-6.83a11.64,11.64,0,0,0-1.51-3.16c-.74.9-2.21,1.87-2.13,2.69.62,6.33.26,12.78,6.08,17.7,4.88,4.12,7.09,10,6.76,16.73-.27,5.45.62,11,.45,16.41-.24,7.19-4.58,12.28-11.58,13.56-1.73.32-5.13-.81-5.49-2-2.38-7.65-8.64-14.23-6.82-23,.31-1.51,1.57-2.81,2.39-4.21,2.14,1.38,5.13,2.29,6.2,4.24,1.24,2.29.68,5.51,1.17,8.28.19,1.09,1.12,2,1.71,3.07.89-.84,2.23-1.52,2.6-2.55,2.63-7.42-1.9-20-8.39-24.54a6.87,6.87,0,0,1-2.78-4.17c-.86-7.43-1.33-14.9-2-22.36-.41-4.68,2.65-7.41,5.26-10.69,3-3.8,7.32-5.75,10.88-2.89a15.6,15.6,0,0,1,5.27,7.64C289.18,14.67,289.34,20.23,290,25.46Z"/><path class="cls-1" d="M326.86,71l-7.45,1.56c0-5.57-.34-11.34.08-17.05.66-8.93,2-17.81,2.74-26.74A180.23,180.23,0,0,0,322.76,9c-.11-3.86,2.18-5.37,5-5.56,3.08-.22,6.72-.39,7.7,4.29,1.33,6.43,2.73,12.54,2.06,19.45-.82,8.44,1.11,17.14,1.73,25.74.34,4.78.4,9.58.63,14.37.21,4.39-2,5.56-5.92,4.63-.95-3.71-1.88-7.4-2.82-11.08l-2.28-.09Zm4-22.66V22.77h-1.8c-2.76,7.89-2.69,16-1.36,24.21C327.8,47.66,330.12,48,330.86,48.31Z"/><path class="cls-1" d="M349.14,47.51v5.11c0,5.4.24,10.81,0,16.19,0,1.09-2,2.08-3,3.12-1.26-1.48-3.56-2.92-3.61-4.44-.35-9.63,0-19.28-.27-28.91-.27-9.87-.91-19.73-1.51-29.59-.29-4.82,1.88-5.62,8.28-2.9v22.2h1.16c.64-5,1-10.11,2.05-15,.6-2.74-.53-7.65,4.8-6.93s2.58,5,2.28,7.55c-.86,7.39-2.94,14.66-3.36,22-.32,5.66,1.07,11.43,1.87,17.13.65,4.6,1.78,9.14,2.21,13.75.14,1.48-1,4.14-2.06,4.44-2.43.67-4.38-.39-4.45-3.66a121.9,121.9,0,0,0-1.12-12.8,63.1,63.1,0,0,0-1.83-7.41Z"/><path class="cls-1" d="M385.86,49V75.06l-6.81-1.63V12.22c9.5-2.46,13.92.27,15.33,9.93A57.7,57.7,0,0,1,395,35.08c-.26,3.1-1.93,6.09-3.16,9.69C394.61,51,396.2,58.24,394.6,66c-.33,1.6.21,3.42-.28,4.93s-1.77,2.65-2.7,4c-1-1.41-2.84-2.79-2.89-4.23-.21-5.93.16-11.89.21-17.84a24.49,24.49,0,0,0-.63-4Zm2.37-25.18-1.78.06c-.13,4.29-2.69,8.69.15,12.86h1.63Z"/><path class="cls-1" d="M19.18,30c.23-3.3.29-6.62.75-9.89.19-1.31,1.25-2.51,1.92-3.76.8,1.12,2.35,2.26,2.3,3.33-.51,11-1.22,21.89-2.06,32.81C22,53.79,20.71,55,20,56.26c-.61-1.42-1.66-2.81-1.76-4.26-.25-3.66-.08-7.36-.08-12.14C13.42,46,19.52,54.21,11.46,59.64c0-5.65-.17-10,0-14.24.26-5.42,1-10.83,1.16-16.26.05-1.12-1.21-2.3-1.87-3.45-1.15,1-3.25,2-3.31,3.11-.45,8.27-.52,16.56-.7,24.85,0,1,.3,2.15-.09,3A27.83,27.83,0,0,1,4,60.51c-.9-1.37-2.57-2.74-2.57-4.1,0-5,.52-9.92,1-14.86.27-2.81,1.28-5.62,1.11-8.38A13.76,13.76,0,0,0,1,26.38c-2-2.74-1-7.23,2.39-8,2.48-.58,5.05-.77,8-1.2v5.26c.58-.35.92-.45,1.08-.68,1.27-1.71,2.5-3.45,3.74-5.18a57,57,0,0,1,1.23,6.33c.22,2.34,0,4.71,0,7.07Z"/><path class="cls-1" d="M362.5,7l12.43,2.58V20c-4.82-1.1-5.33,1.92-5,5.08.41,3.73-2.75,9.2,4.58,10v9.17h-4.32c-.2.39-.59.81-.62,1.25a55.39,55.39,0,0,0-.44,8.44c.15,2,.68,5.31,1.89,5.76,7.24,2.74,4.5,8,4.08,12.7-.55.22-.88.5-1.13.44-10.11-2.4-10.6-2.38-11.11-12.7-.51-9.55.29-19.17.22-28.76-.05-6.52-.62-13-.88-19.55A43.69,43.69,0,0,1,362.5,7Z"/><path class="cls-1" d="M404.42,66.86c2.74-7.93-.08-14.79-4.18-21.63a18.26,18.26,0,0,1-2.3-8.19c-.29-5.22-.53-10.59.42-15.66.47-2.5,3.67-4.47,5.64-6.68,2.14,2.09,5.13,3.83,6.22,6.38,1.32,3,1.43,6.82,1.22,10.23-.07,1.18-2.64,2.21-4.82,3.89-.67-3.29-1-4.84-1.35-6.65-3.06,4.81-2,9.84.85,14.67a35.58,35.58,0,0,1,4.34,13.18c.7,5.18.2,10.54,0,15.82-.13,3.42-1.57,6.73-5.26,6.7-1.9,0-3.86-2.62-5.63-4.24-5.7-5.19-.85-11.69-1.93-17.48,0-.22,2.26-1.39,2.63-1.08a5.81,5.81,0,0,1,2.16,3.33,58.42,58.42,0,0,1,.1,7.6Z"/><path class="cls-1" d="M24.08,55.51c.64-9.16,1.28-17.68,1.81-26.21.19-3.1-.34-6.32.36-9.28.39-1.67,2.41-3.26,4.09-4.18.76-.42,3.54.85,3.55,1.38a18.44,18.44,0,0,1-1.23,5.63c-1,3-3.56,5.79,0,9.08,1.79,1.65,2.7,4.18-.95,5.7-2.66,1.11-2.79,7.25-.53,9,.91.69,2,2.18,1.86,3a7.3,7.3,0,0,1-2.6,4.14C29.05,54.77,27,54.77,24.08,55.51Z"/></svg>